<?xml version="1.0" encoding="utf-8"?>
<svg xmlns="http://www.w3.org/2000/svg">
  <defs>
    <symbol id="unchecked" viewBox="0 0 512 512">
      <path d="m 93.51754,30.258079 c -37.173466,0 -67.10174,29.926225 -67.10174,67.099699 V 413.17765 c 0,37.17347 29.928274,67.09969 67.10174,67.09969 h 315.81783 c 37.17347,0 67.0997,-29.92622 67.0997,-67.09969 V 97.357778 c 0,-37.173474 -29.92623,-67.099699 -67.0997,-67.099699 z m 51.77251,73.773211 h 212.27281 c 24.98544,0 45.09899,20.11559 45.09899,45.10104 v 212.27076 c 0,24.98545 -20.11355,45.10104 -45.09899,45.10104 H 145.29005 c -24.98544,0 -45.09899,-20.11559 -45.09899,-45.10104 V 149.13233 c 0,-24.98545 20.11355,-45.10104 45.09899,-45.10104 z" />
    </symbol>

    <symbol id="checked" viewBox="0 0 512 512">
      <path d="m 93.517578,30.257812 c -37.173388,0 -67.101562,29.926204 -67.101562,67.09961 v 62.837888 c 3.139992,-6.69772 14.016686,-15.45758 21.703125,-17.48828 9.579236,-2.53077 29.982505,-4.61812 52.072269,6.08203 v -5.94726 c 0,-18.34793 20.11422,-38.81055 45.09961,-38.81055 h 182.79492 l 60.28125,-73.773438 z m 350.529302,1.820313 c -12.94124,0.293841 -25.6444,6.173548 -34.3125,17.185547 L 199.99023,315.72461 103.61914,182.29688 C 89.031265,162.09996 61.026991,157.58399 40.830078,172.17188 20.633153,186.75975 16.119163,214.76402 30.707031,234.96094 L 153.66797,405.20117 c 6.17115,8.63303 11.84102,14.54179 19.51367,20.51758 14.74465,11.48376 43.55096,14.15502 58.96094,-5.42187 l 248.26758,-315.4004 c 15.40995,-19.576876 12.05345,-47.744327 -7.52344,-63.154292 -8.56489,-6.741859 -18.77444,-9.892606 -28.83984,-9.664063 z m 32.38867,123.998045 -73.77344,93.72266 v 111.60351 c 0,24.98541 -20.11421,45.10157 -45.09961,45.10157 h -78.91797 l -26.85351,32.82812 c -9.13088,8.66011 -21.7566,18.47381 -55.11914,19.51367 -34.5542,1.077 -60.28915,-30.42568 -73.4668,-49.83203 -14.42073,-0.33242 -22.30434,-8.66299 -22.38281,-17.85156 -0.0784,-9.18856 -0.63086,-5.76433 -0.63086,-12.98438 v -5.07617 L 30.705078,281.09375 c -1.695446,-2.34735 -3.10431,-4.81098 -4.289062,-7.33594 v 139.41992 c 0,37.17341 29.928174,67.09961 67.101562,67.09961 H 409.33594 c 37.17339,0 67.09961,-29.9262 67.09961,-67.09961 z" />
    </symbol>

<symbol id="pen" viewBox="0 0 512 512">
      <path d="M 374.01432,35.30857 C 329.14063,8.06884 271.08442,22.263872 243.84467,67.137572 L 131.99497,251.39445 c 0.79585,0.44032 1.61007,0.81693 2.39487,1.29332 l 58.7593,35.66875 113.3909,-186.79581 c 6.6983,-11.03453 20.97391,-14.525345 32.00842,-7.827056 11.03451,6.698296 14.52534,20.973896 7.82705,32.008426 l -113.3909,186.7958 61.08124,37.07821 111.77853,-184.13964 C 433.08411,120.60276 418.88802,62.548311 374.01432,35.30857 Z M 112.83545,280.86645 96.09162,492.10239 275.76253,379.76829 217.64541,344.48937 a 29.882261,29.882261 0 0 1 -4.26438,17.47053 29.882261,29.882261 0 0 1 -41.05165,10.03837 29.882261,29.882261 0 0 1 -10.03664,-41.05056 29.882261,29.882261 0 0 1 13.58721,-11.81128 z" />
    </symbol>
    
    <symbol id="shuffle" viewBox="0 0 512 512">
      <path d="m 385.73658,31.918683 c -7.74128,3.457162 -6.4588,10.891187 -6.4588,10.891187 v 34.242864 h -26.39549 c 0,0 -15.01461,-1.146945 -31.45319,4.928238 -16.43859,6.075182 -28.68032,20.960248 -28.68032,20.960248 l -43.03034,52.30292 62.01615,75.95703 27.78828,-35.54692 c 0,0 5.61881,-9.76939 15.66882,-17.78403 10.05001,-8.01464 24.08609,-4.62022 24.08609,-4.62022 l 0.30755,33.42377 c 0,0 -1.47929,7.91582 6.76638,11.65538 8.24566,3.73956 13.45847,-3.3783 13.45847,-3.3783 l 84.74562,-76.23749 c 0,0 7.82607,-6.39131 7.82607,-13.12742 0,-6.73611 -8.66412,-13.88133 -8.66412,-13.88133 L 398.49611,35.038892 c 0,0 -5.01825,-6.577371 -12.75953,-3.120209 z M 31.023122,84.298578 c -6.426304,6.435761 -7.701984,17.403452 -7.701984,17.403452 v 41.37143 c 0,0 -0.156642,14.35929 6.535016,21.0608 6.69166,6.70151 20.113397,9.11574 20.113397,9.11574 h 11.04614 c 0,0 21.116201,-2.22756 35.501062,5.11812 14.384857,7.34567 22.169317,22.35025 22.169317,22.35025 l 47.19286,60.03554 -0.25549,0.30273 73.90686,95.58789 37.3905,47.90945 c 0,0 18.50214,20.01174 35.73431,26.9929 17.23217,6.98116 28.83993,6 28.83993,6 h 37.78274 v 27.12493 c 0,0 -1.81563,8.82984 6.86559,12.70677 8.68123,3.87693 14.2053,-2.91215 14.2053,-2.91215 l 79.17918,-71.2299 c 0,0 11.63215,-8.09142 11.63215,-17.65059 0,-9.55917 -14.99675,-20.67739 -14.99675,-20.67739 l -75.72874,-68.12587 c 0,0 -6.07711,-7.00322 -15.00549,-3.01591 -8.92839,3.98731 -6.15124,14.24388 -6.15124,14.24388 v 31.14755 c 0,0 -8.84526,3.02968 -22.78802,-2.98863 -13.94277,-6.0183 -23.1717,-20.12465 -23.1717,-20.12465 L 226.31733,181.38281 166.66739,108.93411 c 0,0 -9.8528,-13.468357 -30.81085,-23.004149 C 114.8985,76.394168 95.046277,77.052734 95.046277,77.052734 H 53.23706 c 0,0 -15.787634,0.810084 -22.213938,7.245844 z M 142.58313,288.3457 l -25.4081,30.09155 c 0,0 -7.42762,11.77395 -19.39901,16.60963 -11.971393,4.83568 -25.626614,4.12632 -25.626614,4.12632 l -17.51058,0.0801 c 0,0 -15.457702,1.52331 -22.68213,8.79148 -7.224427,7.26817 -8.635558,21.51978 -8.635558,21.51978 v 33.89185 c 0,0 0.397243,17.42553 8.402165,25.44223 8.004921,8.01671 25.481445,8.64827 25.481445,8.64827 h 56.752772 c 0,0 18.58647,1.09253 33.58485,-6.68329 14.99838,-7.77583 23.26679,-17.59659 23.26679,-17.59659 l 34.26209,-43.90177 z" />
    </symbol>
    
    
    <symbol id="repeat" viewBox="0 0 512 512">
      <path d="m 341.45082,50.562244 c -15.69259,-7.680142 -31.10634,5.844001 -31.10634,5.844001 L 188.20714,151.29819 c 0,0 -23.89573,16.63302 -24.27637,29.80301 -0.38065,13.17 24.38448,29.88703 24.38448,29.88703 l 115.32447,89.59881 c 0,0 22.27221,15.76695 36.66917,8.38863 14.39698,-7.37832 13.32243,-32.92697 13.32243,-32.92697 v -53.246 c 20.78025,1.01092 37.22035,18.02294 37.22035,39.06255 v 61.81384 c 0,21.69453 -17.46487,39.1594 -39.15939,39.1594 H 159.57089 c -21.69454,0 -39.1594,-17.46487 -39.1594,-39.1594 v -61.81384 c 0,-21.69453 6.89568,-37.10475 25.57661,-39.15939 0,0 -33.00117,-22.7806 -34.335,-43.12721 -1.33382,-20.34663 29.90077,-42.43933 29.90077,-42.43933 C 47.54381,136.81966 20.298848,186.12247 20.298848,246.56861 v 92.40932 c 0,60.44616 48.661794,109.10794 109.107952,109.10794 h 252.44957 c 60.44615,0 109.10795,-48.66178 109.10795,-109.10794 v -92.40932 c 0,-60.44614 -48.6618,-109.11015 -109.10795,-109.11015 H 353.63132 V 72.786679 c 0,0 3.51209,-14.544293 -12.1805,-22.224435 z" />
    </symbol>
    
    <symbol id="plus" viewBox="0 0 512 512">
      <path d="m 254.81641,21.707031 c -27.64515,0 -49.90235,22.255241 -49.90235,49.900391 V 205.8418 H 70.681641 c -27.645151,0 -49.900391,22.25524 -49.900391,49.90039 0,27.64515 22.25524,49.90039 49.900391,49.90039 H 204.91406 v 134.23437 c 0,27.64515 22.2572,49.90039 49.90235,49.90039 27.64515,0 49.90039,-22.25524 49.90039,-49.90039 V 305.64258 h 134.23437 c 27.64515,0 49.90039,-22.25524 49.90039,-49.90039 0,-27.64515 -22.25524,-49.90039 -49.90039,-49.90039 H 304.7168 V 71.607422 c 0,-27.64515 -22.25524,-49.900391 -49.90039,-49.900391 z" />
    </symbol>
    
    <symbol id="forward" viewBox="0 0 512 512">
      <path d="m 77.026557,62.801693 c -8.741887,0.31422 -17.432198,2.783644 -25.229705,7.42148 L 34.251004,87.069353 C 21.048201,107.34264 22.987677,134.59875 40.49596,152.83401 l 99.11968,103.23438 -103.234396,99.11967 c -21.260838,20.41326 -21.94378,53.96183 -1.530525,75.22268 17.58738,18.31763 44.910301,21.31768 65.739661,8.75418 L 256.10207,289.85445 c 0,0 20.56096,-16.26196 20.87968,-31.93277 0.31873,-15.6708 -20.82346,-34.57944 -20.82346,-34.57944 l -39.55207,-41.19505 -0.2374,0.22698 L 117.24915,79.139779 C 106.30648,67.742747 91.59637,62.277991 77.026557,62.801693 Z m 213.232233,0 c -8.74189,0.31422 -17.4322,2.783644 -25.2297,7.42148 l -17.54585,16.84618 c -13.2028,20.273287 -11.26334,47.529397 6.24496,65.764657 l 99.11967,103.23438 -103.23439,99.11967 c -21.26084,20.41326 -21.94378,53.96183 -1.53053,75.22268 17.58738,18.31763 44.9103,21.31768 65.73967,8.75418 L 469.33431,289.85445 c 0,0 20.56096,-16.26196 20.87968,-31.93277 0.31873,-15.6708 -20.82346,-34.57944 -20.82346,-34.57944 l -39.55208,-41.19505 -0.23739,0.22698 L 330.48139,79.139779 C 319.53871,67.742747 304.8286,62.277991 290.25879,62.801693 Z" />
    </symbol>
    
    
    <symbol id="reverse" viewBox="0 0 512 512">
      <path d="m 433.16818,62.801693 c 8.74188,0.31422 17.43219,2.783644 25.2297,7.42148 l 17.54585,16.84618 c 13.2028,20.273287 11.26333,47.529397 -6.24496,65.764657 l -99.11968,103.23438 103.2344,99.11967 c 21.26084,20.41326 21.94378,53.96183 1.53052,75.22268 -17.58738,18.31763 -44.9103,21.31768 -65.73966,8.75418 L 254.09266,289.85445 c 0,0 -20.56096,-16.26196 -20.87968,-31.93277 -0.31873,-15.6708 20.82346,-34.57944 20.82346,-34.57944 l 39.55207,-41.19505 0.2374,0.22698 99.11967,-103.234391 c 10.94267,-11.397032 25.65278,-16.861788 40.2226,-16.338086 z m -213.23224,0 c 8.74189,0.31422 17.4322,2.783644 25.2297,7.42148 l 17.54585,16.84618 c 13.2028,20.273287 11.26334,47.529397 -6.24496,65.764657 l -99.11967,103.23438 103.23439,99.11967 c 21.26084,20.41326 21.94378,53.96183 1.53053,75.22268 -17.58738,18.31763 -44.9103,21.31768 -65.73967,8.75418 L 40.860424,289.85445 c 0,0 -20.56096,-16.26196 -20.87968,-31.93277 -0.31873,-15.6708 20.82346,-34.57944 20.82346,-34.57944 l 39.55208,-41.19505 0.23739,0.22698 99.119666,-103.234391 c 10.94268,-11.397032 25.65279,-16.861788 40.2226,-16.338086 z" />
    </symbol>
    
    
    <symbol id="trash" viewBox="0 0 512 512">
      <path d="M 255.74619,20.639518 A 56.102432,44.739069 0 0 0 200.36627,58.786365 H 81.07957 c -22.413075,0 -40.45723,15.890514 -40.45723,35.628999 0,5.242111 1.304487,10.195366 3.593637,14.669116 H 467.30199 c 2.2891,-4.47368 3.59107,-9.427076 3.59107,-14.669116 0,-19.738485 -18.04415,-35.628999 -40.45723,-35.628999 H 311.14658 A 56.102432,44.739069 0 0 0 255.74619,20.639518 Z M 60.95726,129.73699 102.53637,402.3872 c 0,0 4.59843,47.54641 27.63233,67.33393 23.03388,19.78749 78.51185,21.19554 78.51185,21.19554 h 103.15761 c -1e-5,0 46.6488,0.19998 67.59264,-17.66337 20.94381,-17.8634 26.69997,-65.42827 26.69997,-65.42827 l 44.42738,-278.08804 z m 112.7244,56.26616 9.58217,213.33085 -21.62329,-3.44762 -30.10405,-209.0226 z m 102.95012,0 0.39958,220.95356 -37.86253,-1.15775 -4.68478,-218.93518 z m 61.1994,0 42.14775,0.86063 -30.10406,209.0226 -21.62329,3.44762 z" />
    </symbol>
  </defs>
</svg>